# xmcd CD database file
#
# Track frame offsets:
#	150
#	17780
#	32281
#	49435
#	64436
#	81525
#	94680
#	108068
#	125782
#	139194
#	153034
#	167605
#	178522
#
# Disc length: 2612 seconds
#
# Revision: 0
# Processed by: cddbd v1.4PL0 Copyright (c) Steve Scherf et al.
# Submitted via: CDex 1.40Beta9
#
DISCID=a90a320d
DTITLE=Jamie Richards - No Regrets
DYEAR=2001
DGENRE=Country
TTITLE0=Don't Try To Find Me
TTITLE1=Cold In Mexico
TTITLE2=With You
TTITLE3=I'll Always Remember
TTITLE4=Tears Too Deep To Cry
TTITLE5=Red River Runaround
TTITLE6=The Rooster
TTITLE7=Room With No Windows
TTITLE8=On Tequila
TTITLE9=That's Me
TTITLE10=Bittersweet Wine
TTITLE11=Ordinary Joe
TTITLE12=Tear In Your Eye
EXTD=YEAR: 2001 ID3G: 2
EXTT0=
EXTT1=
EXTT2=
EXTT3=
EXTT4=
EXTT5=
EXTT6=
EXTT7=
EXTT8=
EXTT9=
EXTT10=
EXTT11=
EXTT12=
PLAYORDER=
